# xmcd
#
# Track frame offsets:
#	150
#	13872
#	27634
#	38828
#	51323
#	64317
#	75910
#	89148
#	104331
#	114704
#	127578
#
# Disc length: 1874 seconds
#
# Revision: 1
# Processed by: cddbd v1.5.2PL0 Copyright (c) Steve Scherf et al.
# Submitted via: EasyCDDAExtractor 10.0.2.1
#
DISCID=9107500b
DTITLE=Roy Black - Ganz in Weiﬂ CD1 von 3
DYEAR=1999
DGENRE=Schlager
TTITLE0=Ganz in Weiﬂ
TTITLE1=Bleib bei mir
TTITLE2=Du bist nicht allein
TTITLE3=Leg Dein Herz in meine H‰nde
TTITLE4=Good Night My Love
TTITLE5=Wunderbar ist die Welt
TTITLE6=Ich denk an Dich
TTITLE7=Ich hab' Dich lieb
TTITLE8=Irgend jemand liebt auch Dich
TTITLE9=Frag nur Dein herz
TTITLE10=Meine Liebe zu Dir
EXTD=
EXTT0=
EXTT1=
EXTT2=
EXTT3=
EXTT4=
EXTT5=
EXTT6=
EXTT7=
EXTT8=
EXTT9=
EXTT10=
PLAYORDER=
